<mxfile host="Electron" modified="2024-05-16T15:36:44.816Z" agent="Mozilla/5.0 (Windows NT 10.0; Win64; x64) AppleWebKit/537.36 (KHTML, like Gecko) draw.io/24.4.0 Chrome/120.0.6099.109 Electron/28.1.0 Safari/537.36" etag="EpjQF6niNUcBYwLwFEFl" version="24.4.0" type="device">
  <diagram name="Страница — 1" id="la-ixih3JUKiPBNiv9q4">
    <mxGraphModel dx="1104" dy="858" grid="1" gridSize="10" guides="1" tooltips="1" connect="1" arrows="1" fold="1" page="1" pageScale="1" pageWidth="1654" pageHeight="2336" math="0" shadow="0">
      <root>
        <mxCell id="0" />
        <mxCell id="1" parent="0" />
        <mxCell id="v1wPXx0dnq0gfrpf2S5S-9" style="edgeStyle=orthogonalEdgeStyle;rounded=0;orthogonalLoop=1;jettySize=auto;html=1;entryX=1;entryY=0.5;entryDx=0;entryDy=0;" parent="1" source="v1wPXx0dnq0gfrpf2S5S-1" target="v1wPXx0dnq0gfrpf2S5S-6" edge="1">
          <mxGeometry relative="1" as="geometry">
            <Array as="points">
              <mxPoint x="295" y="400" />
              <mxPoint x="295" y="345" />
            </Array>
          </mxGeometry>
        </mxCell>
        <mxCell id="v1wPXx0dnq0gfrpf2S5S-10" style="edgeStyle=orthogonalEdgeStyle;rounded=0;orthogonalLoop=1;jettySize=auto;html=1;entryX=1;entryY=0.5;entryDx=0;entryDy=0;" parent="1" source="v1wPXx0dnq0gfrpf2S5S-1" target="v1wPXx0dnq0gfrpf2S5S-7" edge="1">
          <mxGeometry relative="1" as="geometry">
            <Array as="points">
              <mxPoint x="300" y="405" />
              <mxPoint x="300" y="405" />
            </Array>
          </mxGeometry>
        </mxCell>
        <mxCell id="v1wPXx0dnq0gfrpf2S5S-11" style="edgeStyle=orthogonalEdgeStyle;rounded=0;orthogonalLoop=1;jettySize=auto;html=1;entryX=1;entryY=0.5;entryDx=0;entryDy=0;" parent="1" source="v1wPXx0dnq0gfrpf2S5S-1" target="v1wPXx0dnq0gfrpf2S5S-8" edge="1">
          <mxGeometry relative="1" as="geometry">
            <Array as="points">
              <mxPoint x="295" y="410" />
              <mxPoint x="295" y="465" />
            </Array>
          </mxGeometry>
        </mxCell>
        <mxCell id="v1wPXx0dnq0gfrpf2S5S-33" style="edgeStyle=orthogonalEdgeStyle;rounded=0;orthogonalLoop=1;jettySize=auto;html=1;entryX=0;entryY=0.5;entryDx=0;entryDy=0;" parent="1" source="v1wPXx0dnq0gfrpf2S5S-1" target="v1wPXx0dnq0gfrpf2S5S-14" edge="1">
          <mxGeometry relative="1" as="geometry" />
        </mxCell>
        <mxCell id="v1wPXx0dnq0gfrpf2S5S-34" style="edgeStyle=orthogonalEdgeStyle;rounded=0;orthogonalLoop=1;jettySize=auto;html=1;entryX=0;entryY=0.5;entryDx=0;entryDy=0;" parent="1" source="v1wPXx0dnq0gfrpf2S5S-1" target="v1wPXx0dnq0gfrpf2S5S-15" edge="1">
          <mxGeometry relative="1" as="geometry" />
        </mxCell>
        <mxCell id="v1wPXx0dnq0gfrpf2S5S-35" style="edgeStyle=orthogonalEdgeStyle;rounded=0;orthogonalLoop=1;jettySize=auto;html=1;entryX=0;entryY=0.5;entryDx=0;entryDy=0;" parent="1" source="v1wPXx0dnq0gfrpf2S5S-1" target="v1wPXx0dnq0gfrpf2S5S-16" edge="1">
          <mxGeometry relative="1" as="geometry" />
        </mxCell>
        <mxCell id="v1wPXx0dnq0gfrpf2S5S-38" style="edgeStyle=orthogonalEdgeStyle;rounded=0;orthogonalLoop=1;jettySize=auto;html=1;entryX=0;entryY=0.5;entryDx=0;entryDy=0;" parent="1" source="v1wPXx0dnq0gfrpf2S5S-1" target="v1wPXx0dnq0gfrpf2S5S-19" edge="1">
          <mxGeometry relative="1" as="geometry" />
        </mxCell>
        <mxCell id="v1wPXx0dnq0gfrpf2S5S-39" style="edgeStyle=orthogonalEdgeStyle;rounded=0;orthogonalLoop=1;jettySize=auto;html=1;entryX=0;entryY=0.5;entryDx=0;entryDy=0;" parent="1" source="v1wPXx0dnq0gfrpf2S5S-1" target="v1wPXx0dnq0gfrpf2S5S-20" edge="1">
          <mxGeometry relative="1" as="geometry" />
        </mxCell>
        <mxCell id="v1wPXx0dnq0gfrpf2S5S-1" value="Пользователь" style="shape=umlActor;verticalLabelPosition=bottom;verticalAlign=top;html=1;outlineConnect=0;" parent="1" vertex="1">
          <mxGeometry x="340" y="375" width="30" height="60" as="geometry" />
        </mxCell>
        <mxCell id="v1wPXx0dnq0gfrpf2S5S-28" style="edgeStyle=orthogonalEdgeStyle;rounded=0;orthogonalLoop=1;jettySize=auto;html=1;entryX=0.5;entryY=0;entryDx=0;entryDy=0;" parent="1" source="v1wPXx0dnq0gfrpf2S5S-2" target="v1wPXx0dnq0gfrpf2S5S-27" edge="1">
          <mxGeometry relative="1" as="geometry" />
        </mxCell>
        <mxCell id="v1wPXx0dnq0gfrpf2S5S-30" style="edgeStyle=orthogonalEdgeStyle;rounded=0;orthogonalLoop=1;jettySize=auto;html=1;" parent="1" source="v1wPXx0dnq0gfrpf2S5S-2" target="v1wPXx0dnq0gfrpf2S5S-24" edge="1">
          <mxGeometry relative="1" as="geometry" />
        </mxCell>
        <mxCell id="v1wPXx0dnq0gfrpf2S5S-32" style="edgeStyle=orthogonalEdgeStyle;rounded=0;orthogonalLoop=1;jettySize=auto;html=1;entryX=0;entryY=0.5;entryDx=0;entryDy=0;" parent="1" source="v1wPXx0dnq0gfrpf2S5S-2" target="v1wPXx0dnq0gfrpf2S5S-26" edge="1">
          <mxGeometry relative="1" as="geometry" />
        </mxCell>
        <mxCell id="v1wPXx0dnq0gfrpf2S5S-40" style="edgeStyle=orthogonalEdgeStyle;rounded=0;orthogonalLoop=1;jettySize=auto;html=1;entryX=1;entryY=0.5;entryDx=0;entryDy=0;" parent="1" source="v1wPXx0dnq0gfrpf2S5S-2" target="v1wPXx0dnq0gfrpf2S5S-14" edge="1">
          <mxGeometry relative="1" as="geometry" />
        </mxCell>
        <mxCell id="v1wPXx0dnq0gfrpf2S5S-41" style="edgeStyle=orthogonalEdgeStyle;rounded=0;orthogonalLoop=1;jettySize=auto;html=1;entryX=1;entryY=0.5;entryDx=0;entryDy=0;" parent="1" source="v1wPXx0dnq0gfrpf2S5S-2" target="v1wPXx0dnq0gfrpf2S5S-15" edge="1">
          <mxGeometry relative="1" as="geometry" />
        </mxCell>
        <mxCell id="v1wPXx0dnq0gfrpf2S5S-42" style="edgeStyle=orthogonalEdgeStyle;rounded=0;orthogonalLoop=1;jettySize=auto;html=1;entryX=1;entryY=0.5;entryDx=0;entryDy=0;" parent="1" source="v1wPXx0dnq0gfrpf2S5S-2" target="v1wPXx0dnq0gfrpf2S5S-16" edge="1">
          <mxGeometry relative="1" as="geometry" />
        </mxCell>
        <mxCell id="v1wPXx0dnq0gfrpf2S5S-45" style="edgeStyle=orthogonalEdgeStyle;rounded=0;orthogonalLoop=1;jettySize=auto;html=1;entryX=1;entryY=0.5;entryDx=0;entryDy=0;" parent="1" source="v1wPXx0dnq0gfrpf2S5S-2" target="v1wPXx0dnq0gfrpf2S5S-19" edge="1">
          <mxGeometry relative="1" as="geometry" />
        </mxCell>
        <mxCell id="v1wPXx0dnq0gfrpf2S5S-46" style="edgeStyle=orthogonalEdgeStyle;rounded=0;orthogonalLoop=1;jettySize=auto;html=1;entryX=1;entryY=0.5;entryDx=0;entryDy=0;" parent="1" source="v1wPXx0dnq0gfrpf2S5S-2" target="v1wPXx0dnq0gfrpf2S5S-20" edge="1">
          <mxGeometry relative="1" as="geometry" />
        </mxCell>
        <mxCell id="rZBvovR5PTGzT005LCo--2" style="edgeStyle=orthogonalEdgeStyle;rounded=0;orthogonalLoop=1;jettySize=auto;html=1;entryX=0;entryY=0.5;entryDx=0;entryDy=0;" edge="1" parent="1" source="v1wPXx0dnq0gfrpf2S5S-2" target="rZBvovR5PTGzT005LCo--1">
          <mxGeometry relative="1" as="geometry">
            <Array as="points">
              <mxPoint x="800" y="400" />
              <mxPoint x="800" y="275" />
            </Array>
          </mxGeometry>
        </mxCell>
        <mxCell id="rZBvovR5PTGzT005LCo--4" style="edgeStyle=orthogonalEdgeStyle;rounded=0;orthogonalLoop=1;jettySize=auto;html=1;entryX=0;entryY=0.5;entryDx=0;entryDy=0;" edge="1" parent="1" source="v1wPXx0dnq0gfrpf2S5S-2" target="rZBvovR5PTGzT005LCo--3">
          <mxGeometry relative="1" as="geometry">
            <Array as="points">
              <mxPoint x="800" y="400" />
              <mxPoint x="800" y="525" />
            </Array>
          </mxGeometry>
        </mxCell>
        <mxCell id="v1wPXx0dnq0gfrpf2S5S-2" value="Администратор" style="shape=umlActor;verticalLabelPosition=bottom;verticalAlign=top;html=1;outlineConnect=0;" parent="1" vertex="1">
          <mxGeometry x="715" y="370" width="30" height="60" as="geometry" />
        </mxCell>
        <mxCell id="v1wPXx0dnq0gfrpf2S5S-6" value="Регестрация" style="ellipse;whiteSpace=wrap;html=1;" parent="1" vertex="1">
          <mxGeometry x="140" y="320" width="120" height="50" as="geometry" />
        </mxCell>
        <mxCell id="v1wPXx0dnq0gfrpf2S5S-7" value="Заказать товар" style="ellipse;whiteSpace=wrap;html=1;" parent="1" vertex="1">
          <mxGeometry x="90" y="380" width="120" height="50" as="geometry" />
        </mxCell>
        <mxCell id="v1wPXx0dnq0gfrpf2S5S-8" value="Добавление товара в корзину" style="ellipse;whiteSpace=wrap;html=1;" parent="1" vertex="1">
          <mxGeometry x="140" y="440" width="120" height="50" as="geometry" />
        </mxCell>
        <mxCell id="v1wPXx0dnq0gfrpf2S5S-14" value="Авторизация" style="ellipse;whiteSpace=wrap;html=1;" parent="1" vertex="1">
          <mxGeometry x="460" y="240" width="120" height="50" as="geometry" />
        </mxCell>
        <mxCell id="v1wPXx0dnq0gfrpf2S5S-15" value="Посмотреть каталог&lt;span style=&quot;color: rgba(0, 0, 0, 0); font-family: monospace; font-size: 0px; text-align: start; text-wrap: nowrap;&quot;&gt;%3CmxGraphModel%3E%3Croot%3E%3CmxCell%20id%3D%220%22%2F%3E%3CmxCell%20id%3D%221%22%20parent%3D%220%22%2F%3E%3CmxCell%20id%3D%222%22%20value%3D%22%D0%90%D0%B2%D1%82%D0%BE%D1%80%D0%B8%D0%B7%D0%BE%D0%B2%D0%B0%D1%82%D1%8C%D1%81%D1%8F%22%20style%3D%22ellipse%3BwhiteSpace%3Dwrap%3Bhtml%3D1%3B%22%20vertex%3D%221%22%20parent%3D%221%22%3E%3CmxGeometry%20x%3D%22460%22%20y%3D%22240%22%20width%3D%22120%22%20height%3D%2250%22%20as%3D%22geometry%22%2F%3E%3C%2FmxCell%3E%3C%2Froot%3E%3C%2FmxGraphModel%3E&lt;/span&gt;" style="ellipse;whiteSpace=wrap;html=1;" parent="1" vertex="1">
          <mxGeometry x="460" y="310" width="120" height="50" as="geometry" />
        </mxCell>
        <mxCell id="v1wPXx0dnq0gfrpf2S5S-16" value="Посмотр информации о товаре" style="ellipse;whiteSpace=wrap;html=1;" parent="1" vertex="1">
          <mxGeometry x="460" y="380" width="120" height="50" as="geometry" />
        </mxCell>
        <mxCell id="v1wPXx0dnq0gfrpf2S5S-19" value="&amp;nbsp;поиск товара" style="ellipse;whiteSpace=wrap;html=1;" parent="1" vertex="1">
          <mxGeometry x="460" y="570" width="120" height="50" as="geometry" />
        </mxCell>
        <mxCell id="v1wPXx0dnq0gfrpf2S5S-20" value="&amp;nbsp;фильтрации товаров" style="ellipse;whiteSpace=wrap;html=1;" parent="1" vertex="1">
          <mxGeometry x="460" y="640" width="120" height="50" as="geometry" />
        </mxCell>
        <mxCell id="v1wPXx0dnq0gfrpf2S5S-21" value="По цене" style="ellipse;whiteSpace=wrap;html=1;" parent="1" vertex="1">
          <mxGeometry x="325" y="740" width="120" height="50" as="geometry" />
        </mxCell>
        <mxCell id="v1wPXx0dnq0gfrpf2S5S-22" value="По категории" style="ellipse;whiteSpace=wrap;html=1;" parent="1" vertex="1">
          <mxGeometry x="460" y="780" width="120" height="50" as="geometry" />
        </mxCell>
        <mxCell id="v1wPXx0dnq0gfrpf2S5S-23" value="По названию" style="ellipse;whiteSpace=wrap;html=1;" parent="1" vertex="1">
          <mxGeometry x="610" y="740" width="120" height="50" as="geometry" />
        </mxCell>
        <mxCell id="v1wPXx0dnq0gfrpf2S5S-24" value="Посмотреть список заказов" style="ellipse;whiteSpace=wrap;html=1;" parent="1" vertex="1">
          <mxGeometry x="670" y="270" width="120" height="50" as="geometry" />
        </mxCell>
        <mxCell id="v1wPXx0dnq0gfrpf2S5S-25" value="Добавление товара" style="ellipse;whiteSpace=wrap;html=1;" parent="1" vertex="1">
          <mxGeometry x="870" y="330" width="120" height="50" as="geometry" />
        </mxCell>
        <mxCell id="v1wPXx0dnq0gfrpf2S5S-26" value="Удаление товар" style="ellipse;whiteSpace=wrap;html=1;" parent="1" vertex="1">
          <mxGeometry x="870" y="420" width="120" height="50" as="geometry" />
        </mxCell>
        <mxCell id="v1wPXx0dnq0gfrpf2S5S-27" value="Редактирование&amp;nbsp; товара" style="ellipse;whiteSpace=wrap;html=1;" parent="1" vertex="1">
          <mxGeometry x="670" y="510" width="120" height="50" as="geometry" />
        </mxCell>
        <mxCell id="v1wPXx0dnq0gfrpf2S5S-31" style="edgeStyle=orthogonalEdgeStyle;rounded=0;orthogonalLoop=1;jettySize=auto;html=1;entryX=-0.009;entryY=0.617;entryDx=0;entryDy=0;entryPerimeter=0;" parent="1" source="v1wPXx0dnq0gfrpf2S5S-2" target="v1wPXx0dnq0gfrpf2S5S-25" edge="1">
          <mxGeometry relative="1" as="geometry" />
        </mxCell>
        <mxCell id="v1wPXx0dnq0gfrpf2S5S-47" value="" style="endArrow=classic;dashed=1;html=1;dashPattern=1 3;strokeWidth=2;rounded=0;endFill=1;entryX=0.5;entryY=0;entryDx=0;entryDy=0;exitX=0.5;exitY=1;exitDx=0;exitDy=0;" parent="1" source="v1wPXx0dnq0gfrpf2S5S-20" target="v1wPXx0dnq0gfrpf2S5S-21" edge="1">
          <mxGeometry width="50" height="50" relative="1" as="geometry">
            <mxPoint x="520" y="540" as="sourcePoint" />
            <mxPoint x="570" y="490" as="targetPoint" />
            <Array as="points" />
          </mxGeometry>
        </mxCell>
        <mxCell id="v1wPXx0dnq0gfrpf2S5S-48" value="&quot;extend&quot;" style="edgeLabel;html=1;align=center;verticalAlign=middle;resizable=0;points=[];" parent="v1wPXx0dnq0gfrpf2S5S-47" vertex="1" connectable="0">
          <mxGeometry x="-0.3155" y="-4" relative="1" as="geometry">
            <mxPoint x="1" as="offset" />
          </mxGeometry>
        </mxCell>
        <mxCell id="v1wPXx0dnq0gfrpf2S5S-49" value="" style="endArrow=classic;dashed=1;html=1;dashPattern=1 3;strokeWidth=2;rounded=0;endFill=1;entryX=0.5;entryY=0;entryDx=0;entryDy=0;exitX=0.5;exitY=1;exitDx=0;exitDy=0;" parent="1" source="v1wPXx0dnq0gfrpf2S5S-20" target="v1wPXx0dnq0gfrpf2S5S-22" edge="1">
          <mxGeometry width="50" height="50" relative="1" as="geometry">
            <mxPoint x="530" y="700" as="sourcePoint" />
            <mxPoint x="395" y="750" as="targetPoint" />
            <Array as="points" />
          </mxGeometry>
        </mxCell>
        <mxCell id="v1wPXx0dnq0gfrpf2S5S-50" value="&quot;extend&quot;" style="edgeLabel;html=1;align=center;verticalAlign=middle;resizable=0;points=[];" parent="v1wPXx0dnq0gfrpf2S5S-49" vertex="1" connectable="0">
          <mxGeometry x="-0.3155" y="-4" relative="1" as="geometry">
            <mxPoint as="offset" />
          </mxGeometry>
        </mxCell>
        <mxCell id="v1wPXx0dnq0gfrpf2S5S-51" value="" style="endArrow=classic;dashed=1;html=1;dashPattern=1 3;strokeWidth=2;rounded=0;endFill=1;entryX=0.44;entryY=0.05;entryDx=0;entryDy=0;exitX=0.5;exitY=1;exitDx=0;exitDy=0;entryPerimeter=0;" parent="1" source="v1wPXx0dnq0gfrpf2S5S-20" target="v1wPXx0dnq0gfrpf2S5S-23" edge="1">
          <mxGeometry width="50" height="50" relative="1" as="geometry">
            <mxPoint x="530" y="700" as="sourcePoint" />
            <mxPoint x="530" y="790" as="targetPoint" />
            <Array as="points" />
          </mxGeometry>
        </mxCell>
        <mxCell id="v1wPXx0dnq0gfrpf2S5S-52" value="&quot;extend&quot;" style="edgeLabel;html=1;align=center;verticalAlign=middle;resizable=0;points=[];" parent="v1wPXx0dnq0gfrpf2S5S-51" vertex="1" connectable="0">
          <mxGeometry x="-0.3155" y="-4" relative="1" as="geometry">
            <mxPoint as="offset" />
          </mxGeometry>
        </mxCell>
        <mxCell id="rZBvovR5PTGzT005LCo--1" value="Посмотреть статистику заказов" style="ellipse;whiteSpace=wrap;html=1;" vertex="1" parent="1">
          <mxGeometry x="827" y="250" width="120" height="50" as="geometry" />
        </mxCell>
        <mxCell id="rZBvovR5PTGzT005LCo--3" value="Деактивироватьтовар" style="ellipse;whiteSpace=wrap;html=1;" vertex="1" parent="1">
          <mxGeometry x="840" y="500" width="120" height="50" as="geometry" />
        </mxCell>
      </root>
    </mxGraphModel>
  </diagram>
</mxfile>
